<svg width="360" height="96" viewBox="0 0 360 96" fill="none" xmlns="http://www.w3.org/2000/svg">
  <rect x="4" y="8" width="80" height="80" rx="22" fill="url(#paint0_linear)"/>
  <path d="M50 30C39.5066 30 31 38.5066 31 49C31 59.4934 39.5066 68 50 68C59.4709 68 67.3208 61.0534 68.7317 52H56V45H68.7317C67.3208 35.9466 59.4709 30 50 30Z" fill="white"/>
  <path d="M101 35.1H117.8C133.7 35.1 143.9 44.9 143.9 58.5C143.9 72.1 133.7 81.9 117.8 81.9H101V35.1ZM117.1 71.4C126 71.4 131.8 66.1 131.8 58.5C131.8 50.9 126 45.6 117.1 45.6H112.5V71.4H117.1Z" fill="white"/>
  <path d="M151.7 35.1H163.2V81.9H151.7V35.1Z" fill="white"/>
  <path d="M194.1 83.1C179.3 83.1 168.6 73.1 168.6 58.5C168.6 43.9 179.5 33.9 194.6 33.9C203.1 33.9 210.2 36.8 214.9 42.2L207.5 49C204.1 45.3 199.9 43.4 195.2 43.4C186.3 43.4 180 49 180 58.5C180 68 186.3 73.6 195.2 73.6C199.9 73.6 204.1 71.7 207.5 67.9L214.9 74.8C210.2 80.2 203.1 83.1 194.1 83.1Z" fill="white"/>
  <path d="M225.3 35.1H236.8V71.9H259.5V81.9H225.3V35.1Z" fill="white"/>
  <path d="M298.3 71.9V81.9H262.1V35.1H297.4V45.1H273.5V53.9H294.6V63.6H273.5V71.9H298.3Z" fill="white"/>
  <path d="M334.5 81.9L325.5 68.9H315.6V81.9H304.1V35.1H324.4C336.9 35.1 344.8 41.6 344.8 52.1C344.8 59.1 341.3 64.2 335.3 67L345.8 81.9H334.5ZM323.8 44.5H315.6V59.6H323.8C330 59.6 333.1 56.7 333.1 52.1C333.1 47.4 330 44.5 323.8 44.5Z" fill="white"/>
  <defs>
    <linearGradient id="paint0_linear" x1="16" y1="12" x2="76" y2="84" gradientUnits="userSpaceOnUse">
      <stop stop-color="#5B6CFF"/>
      <stop offset="0.55" stop-color="#9333EA"/>
      <stop offset="1" stop-color="#22D3EE"/>
    </linearGradient>
  </defs>
</svg>

